HIERARCHY
ROOT Hips
{
  OFFSET -2.9740628571428576 95.22824285714285 -3.405862857142857
  CHANNELS 6 Xposition Zposition Yposition Zrotation Xrotation Yrotation
  JOINT LeftUpLeg
  {
    OFFSET 8.64259 1.9539799999999998 -2.3883499999999995
    CHANNELS 3 Zrotation Xrotation Yrotation
    JOINT LeftLeg
    {
      OFFSET 43.770199999999996 0.0 0.0
      CHANNELS 3 Zrotation Xrotation Yrotation
      JOINT LeftFoot
      {
        OFFSET 40.62380000000001 0.0 0.0
        CHANNELS 3 Zrotation Xrotation Yrotation
        JOINT LeftToeBase
        {
          OFFSET 12.724199999999998 0.0 0.0
          CHANNELS 3 Zrotation Xrotation Yrotation
          End Site
          {
            OFFSET 0.0 0.0 0.0
          }
        }
      }
    }
  }
  JOINT RightUpLeg
  {
    OFFSET -8.2249 1.9539799999999998 -2.59336
    CHANNELS 3 Zrotation Xrotation Yrotation
    JOINT RightLeg
    {
      OFFSET 43.56529999999999 0.0 0.0
      CHANNELS 3 Zrotation Xrotation Yrotation
      JOINT RightFoot
      {
        OFFSET 40.62380000000001 0.0 0.0
        CHANNELS 3 Zrotation Xrotation Yrotation
        JOINT RightToeBase
        {
          OFFSET 12.724199999999998 0.0 0.0
          CHANNELS 3 Zrotation Xrotation Yrotation
          End Site
          {
            OFFSET 0.0 0.0 0.0
          }
        }
      }
    }
  }
  JOINT Spine
  {
    OFFSET 0.16583 0.8771399999999999 6.61349
    CHANNELS 3 Zrotation Xrotation Yrotation
    JOINT Spine1
    {
      OFFSET 7.389628571428571 2e-05 0.0
      CHANNELS 3 Zrotation Xrotation Yrotation
      JOINT Spine2
      {
        OFFSET 11.944500000000001 1e-05 0.0
        CHANNELS 3 Zrotation Xrotation Yrotation
        JOINT Spine3
        {
          OFFSET 14.725400000000004 4e-05 0.0
          CHANNELS 3 Zrotation Xrotation Yrotation
          JOINT Spine4
          {
            OFFSET 10.9679 0.0 0.0
            CHANNELS 3 Zrotation Xrotation Yrotation
            JOINT RightShoulder
            {
              OFFSET 2.46616 -1.6653 3.69651
              CHANNELS 3 Zrotation Xrotation Yrotation
              JOINT RightArm
              {
                OFFSET 13.001199999999999 0.0 0.0
                CHANNELS 3 Zrotation Xrotation Yrotation
                JOINT RightForeArm
                {
                  OFFSET 28.784799999999997 2e-05 0.0
                  CHANNELS 3 Zrotation Xrotation Yrotation
                  JOINT RightHand
                  {
                    OFFSET 26.568800000000003 2e-05 0.0
                    CHANNELS 3 Zrotation Xrotation Yrotation
                    JOINT RightHandMiddle1
                    {
                      OFFSET 8.03675 -0.8865800000000001 0.7278700000000001
                      CHANNELS 3 Zrotation Xrotation Yrotation
                      JOINT RightHandMiddle2
                      {
                        OFFSET 2.7883299999999993 0.0 0.0
                        CHANNELS 3 Zrotation Xrotation Yrotation
                        JOINT RightHandMiddle3
                        {
                          OFFSET 2.4115500000000005 0.0 0.0
                          CHANNELS 3 Zrotation Xrotation Yrotation
                          End Site
                          {
                            OFFSET 0.0 0.0 0.0
                          }
                        }
                      }
                    }
                    JOINT RightHandRing1
                    {
                      OFFSET 7.979660000000002 -0.8867700000000002 -1.00486
                      CHANNELS 3 Zrotation Xrotation Yrotation
                      JOINT RightHandRing2
                      {
                        OFFSET 2.8636799999999996 0.0 0.0
                        CHANNELS 3 Zrotation Xrotation Yrotation
                        JOINT RightHandRing3
                        {
                          OFFSET 2.11079 0.0 0.0
                          CHANNELS 3 Zrotation Xrotation Yrotation
                          End Site
                          {
                            OFFSET 0.0 0.0 0.0
                          }
                        }
                      }
                    }
                    JOINT RightHandPinky1
                    {
                      OFFSET 8.03707 -0.8875299999999999 -2.6069600000000004
                      CHANNELS 3 Zrotation Xrotation Yrotation
                      JOINT RightHandPinky2
                      {
                        OFFSET 1.8462757142857142 0.0 0.0
                        CHANNELS 3 Zrotation Xrotation Yrotation
                        JOINT RightHandPinky3
                        {
                          OFFSET 1.8843400000000001 0.0 0.0
                          CHANNELS 3 Zrotation Xrotation Yrotation
                          End Site
                          {
                            OFFSET 0.0 0.0 0.0
                          }
                        }
                      }
                    }
                    JOINT RightHandIndex1
                    {
                      OFFSET 7.92262 -0.8855000000000002 2.31175
                      CHANNELS 3 Zrotation Xrotation Yrotation
                      JOINT RightHandIndex2
                      {
                        OFFSET 2.63761 0.0 0.0
                        CHANNELS 3 Zrotation Xrotation Yrotation
                        JOINT RightHandIndex3
                        {
                          OFFSET 2.16656 0.0 0.0
                          CHANNELS 3 Zrotation Xrotation Yrotation
                          End Site
                          {
                            OFFSET 0.0 0.0 0.0
                          }
                        }
                      }
                    }
                    JOINT RightHandThumb1
                    {
                      OFFSET 3.4769 0.059800000000000006 2.8878899999999996
                      CHANNELS 3 Zrotation Xrotation Yrotation
                      JOINT RightHandThumb2
                      {
                        OFFSET 2.7768599999999997 0.00010000000000000002 -2e-05
                        CHANNELS 3 Zrotation Xrotation Yrotation
                        JOINT RightHandThumb3
                        {
                          OFFSET 2.420578571428571 -9e-05 0.0
                          CHANNELS 3 Zrotation Xrotation Yrotation
                          End Site
                          {
                            OFFSET 0.0 0.0 0.0
                          }
                        }
                      }
                    }
                  }
                }
              }
            }
            JOINT LeftShoulder
            {
              OFFSET 2.3803400000000003 -1.29275 -3.7523014285714282
              CHANNELS 3 Zrotation Xrotation Yrotation
              JOINT LeftArm
              {
                OFFSET 16.3182 5.9999999999999995e-05 0.0
                CHANNELS 3 Zrotation Xrotation Yrotation
                JOINT LeftForeArm
                {
                  OFFSET 27.090100000000003 0.0 0.0
                  CHANNELS 3 Zrotation Xrotation Yrotation
                  JOINT LeftHand
                  {
                    OFFSET 24.545099999999998 2e-05 0.0
                    CHANNELS 3 Zrotation Xrotation Yrotation
                    JOINT LeftHandMiddle1
                    {
                      OFFSET 9.218019999999997 0.66582 0.5455300000000002
                      CHANNELS 3 Zrotation Xrotation Yrotation
                      JOINT LeftHandMiddle2
                      {
                        OFFSET 2.66255 0.0 0.0
                        CHANNELS 3 Zrotation Xrotation Yrotation
                        JOINT LeftHandMiddle3
                        {
                          OFFSET 2.2804 0.0 0.0
                          CHANNELS 3 Zrotation Xrotation Yrotation
                          End Site
                          {
                            OFFSET 0.0 0.0 0.0
                          }
                        }
                      }
                    }
                    JOINT LeftHandRing1
                    {
                      OFFSET 9.247749999999998 0.66519 -1.1266999999999998
                      CHANNELS 3 Zrotation Xrotation Yrotation
                      JOINT LeftHandRing2
                      {
                        OFFSET 2.4704099999999998 0.0 -2e-05
                        CHANNELS 3 Zrotation Xrotation Yrotation
                        JOINT LeftHandRing3
                        {
                          OFFSET 2.2054000000000005 0.0 0.0
                          CHANNELS 3 Zrotation Xrotation Yrotation
                          End Site
                          {
                            OFFSET 0.0 0.0 0.0
                          }
                        }
                      }
                    }
                    JOINT LeftHandPinky1
                    {
                      OFFSET 9.35383857142857 0.66301 -2.7233200000000006
                      CHANNELS 3 Zrotation Xrotation Yrotation
                      JOINT LeftHandPinky2
                      {
                        OFFSET 1.63407 0.0 0.0
                        CHANNELS 3 Zrotation Xrotation Yrotation
                        JOINT LeftHandPinky3
                        {
                          OFFSET 1.71176 0.0 0.0
                          CHANNELS 3 Zrotation Xrotation Yrotation
                          End Site
                          {
                            OFFSET 0.0 0.0 0.0
                          }
                        }
                      }
                    }
                    JOINT LeftHandIndex1
                    {
                      OFFSET 8.731608571428572 0.6758999999999998 2.0680099999999997
                      CHANNELS 3 Zrotation Xrotation Yrotation
                      JOINT LeftHandIndex2
                      {
                        OFFSET 2.6668899999999995 0.0 0.0
                        CHANNELS 3 Zrotation Xrotation Yrotation
                        JOINT LeftHandIndex3
                        {
                          OFFSET 2.12946 0.0 2e-05
                          CHANNELS 3 Zrotation Xrotation Yrotation
                          End Site
                          {
                            OFFSET 0.0 0.0 0.0
                          }
                        }
                      }
                    }
                    JOINT LeftHandThumb1
                    {
                      OFFSET 4.967354285714285 -0.62265 3.3958599999999994
                      CHANNELS 3 Zrotation Xrotation Yrotation
                      JOINT LeftHandThumb2
                      {
                        OFFSET 2.15386 2e-05 0.0
                        CHANNELS 3 Zrotation Xrotation Yrotation
                        JOINT LeftHandThumb3
                        {
                          OFFSET 2.1951099999999997 -2.9999999999999997e-05 2e-05
                          CHANNELS 3 Zrotation Xrotation Yrotation
                          End Site
                          {
                            OFFSET 0.0 0.0 0.0
                          }
                        }
                      }
                    }
                  }
                }
              }
            }
            JOINT Neck
            {
              OFFSET 5.0226 -0.026629999999999994 0.0
              CHANNELS 3 Zrotation Xrotation Yrotation
              JOINT Head
              {
                OFFSET 6.693637142857143 2.9999999999999997e-05 0.0
                CHANNELS 3 Zrotation Xrotation Yrotation
                End Site
                {
                  OFFSET 0.0 0.0 0.0
                }
              }
            }
          }
        }
      }
    }
  }
}
MOTION
Frames: 4
Frame Time: 0.03333333
133.76666300801378 -187.48069235477698 86.38102687273481 95.49336766218276 -41.19465561750621 91.75940741693206 -128.90918474920534 2.269358579579773 85.84263951760589 -33.86502019709131 -11.650407077928467 -6.939950754285732 42.28180629526913 -14.068848235147472 -13.543078684352302 28.780800000000053 5.464492979722224e-06 6.019596923166799e-06 146.09351434788658 -2.4435187895201302 82.18550748271718 -20.89036079721692 30.256556848479395 5.9631488898315625 52.04953789971468 8.30360102337793 6.261720245253878 28.78079869124149 1.4385899302948555e-05 2.048392187204261e-05 -1.1513468036486554 6.710242968563473 -91.14449369707829 13.346676332329643 -3.3741456948677317 -5.167595858157878 1.6495697184609575 -3.6070415027346123 -5.023193151303078 -20.78884546131078 -1.6687348752056872 -5.942418229181292 -0.7842494751374347 -1.6751047257478788 -5.93678039092938 106.54616608906491 -59.5193267838491 -78.22606607253336 16.369469134580847 19.788926449566556 -61.73866501904216 -13.635343012705391 14.57973569538699 9.758981336221566 -66.07157985397997 22.735818575227153 -61.62008067412287 -89.40430221997315 88.97090000000064 89.09410513992992 -0.06048504422012362 -7.402300226173303e-08 -2.0530478051626546e-07 -0.06392503568760971 -1.0142885136560693e-05 4.92239381394836e-07 -89.39441150719293 88.98100146474792 89.08410964726609 -1.1574200081427124 3.3903423031600763e-06 -1.7112837305008223e-06 2.5759999648632617 -7.1770116800236535e-06 8.103961944420823e-07 -88.85720951378545 89.35790000000121 88.54700723526116 -1.145779970136739 -9.628690656056676e-06 3.937333600971147e-06 1.1457699164624464 1.0155164648800999e-05 -9.51747730969623e-07 -89.42210241769176 88.94869999999857 89.11190337565971 0.4092889868315189 1.0284321835987746e-05 0.0007873430665299417 -0.6365989973142421 -3.714601316646245e-06 -8.568795908876262e-07 104.36399993361003 40.50230042373409 -88.82459920166258 -7.669029896170959 0.18616711206914355 -1.3504398874237806 -11.263400000000216 -2.677298660395786e-06 6.604341568912535e-05 -95.39748390355177 -26.60795201508107 64.56228935231259 -39.03592347520419 11.861638827712225 -30.31269726283 21.43011201970603 17.045171021145414 -34.55707911620951 66.55224215001024 -13.49047077975932 -35.67542477553373 -91.1875004186444 -87.82890000000071 -89.99900032966988 3.4088799983073104 5.370670589654773e-06 0.0032681387660592667 -0.954861822504242 -6.366070589075711e-06 -6.1259936744280684e-06 -91.18780358410753 -89.40149999999899 -89.99930318997964 2.856370190880889 8.318058697434805e-06 0.002858965874249737 -3.1684399990088816 3.027107964770124e-06 5.535633756692811e-08 88.80677699668337 -89.71700103270527 89.99537962112036 2.544810005957899 -1.1815386544371718e-05 0.003043230736034362 -2.5448199940119345 6.652920585056967e-06 1.3200641378960077e-06 -91.18820111707193 -86.19730000000101 -89.99970140887189 6.13104006582372 -9.950553518413695e-06 0.006859741344519571 -2.0454296629195343 -5.930487745009085e-06 -4.559474807364364e-06 -101.94900000000021 -40.72420000000048 -90.06940000000137 10.01720000000002 2.6219305095645397e-05 5.4567770125275135e-06 -2.669759817188836 -6.233608184448727e-06 -4.003437147794122e-06 36.15259925205504 -2.7874280811354577 8.514910980716614 -42.044412500104 -4.727178073270162 -4.110129041468457
134.29582002297636 -187.7995416333967 86.79057909238821 96.02334799411997 -41.01819088343765 91.22963749353848 -132.43237305477774 1.6121023639679066 85.43565604644348 -33.595917461964 -9.536267136122547 -6.329977516072551 38.6667290991958 -16.67127085591791 -16.486664652687207 28.78080000000003 5.460507723830241e-06 6.024582794787993e-06 150.03490905236862 -0.954235553586475 83.91744779687954 -20.082810912863014 30.07340330543902 6.4875537570643225 55.257544551907124 6.570448020851011 5.0823856550920015 28.7807985912127 1.438784763803273e-05 2.0482330100747692e-05 -1.3869040191736008 6.818516302868225 -91.40661111986533 13.094404745059524 -3.9536964970313173 -5.5061327991910805 1.3937630103007015 -4.202695965939657 -5.334339449035916 -21.030821548065298 -2.122615979366932 -6.439134923673372 -1.0294574905493294 -2.1271618105377894 -6.432781063461093 105.84603918745383 -62.028474229430614 -78.73872013389122 15.342208141905802 20.904587586849075 -59.07510823372104 -13.565727210719864 11.20392169092811 9.336702474862761 -65.69450566050665 22.70243038055334 -60.560536638502455 -89.40430072836658 88.97090000000041 89.0941034852018 -0.060485050236240866 -4.093532666914283e-08 -1.629531923130784e-07 -0.06392503981751052 -1.0162758431785818e-05 4.876406515208087e-07 -89.3944113296658 88.98100149294807 89.08410925335578 -1.1574200065114797 3.403065340844299e-06 -1.7026742357034213e-06 2.5759999510629426 -7.180176929957892e-06 8.037324170438099e-07 -88.85720815034335 89.35790000000078 88.54700621174588 -1.1457799756585116 -9.642734315379766e-06 4.4007822012055795e-06 1.1457699203759424 1.0184524627408888e-05 -9.582785605053745e-07 -89.42210246228308 88.94869999999908 89.11190329128274 0.40928898092067834 1.0268208875503788e-05 0.0007874309899056239 -0.636598981010951 -3.7054889808030183e-06 -8.687106442794197e-07 104.3639999240731 40.502300298644776 -88.82459916269357 -7.669029717901183 0.18616709154949387 -1.3504398815624494 -11.263400000000138 -2.6570544167434677e-06 6.604999642614573e-05 -95.17822730415097 -23.58902473937767 63.67351992866972 -40.73682940968338 13.425798088509422 -34.82129810391703 24.868828923579283 19.1519906607827 -38.488023932497825 65.51384600941162 -14.980487187286895 -38.94914739794135 -91.18749883789988 -87.82890000000046 -89.99899876709836 3.408879996592339 5.329054478501156e-06 0.0032684801875726296 -0.9548618974486565 -6.348558032549014e-06 -6.483750982863679e-06 -91.18780113483204 -89.40149999999934 -89.99930083688875 2.8563701727427415 8.306654830116117e-06 0.0028590167302339486 -3.168440003303719 2.985307578774379e-06 5.435756068689664e-08 88.80677847663671 -89.71700112325001 89.99538076551426 2.54481002112061 -1.1759026291221574e-05 0.0030437168176474126 -2.5448199980894453 6.588271518608559e-06 1.3196088441511013e-06 -91.18820135992532 -86.19730000000064 -89.99970168191837 6.131040054155966 -9.934405271323494e-06 0.00686016868279141 -2.0454296234170672 -5.922999055614975e-06 -4.6724664084067315e-06 -101.94900000000014 -40.7242000000003 -90.06940000000088 10.017200000000013 2.6173829065353846e-05 5.462241543965945e-06 -2.6697598282785098 -6.209631672571463e-06 -3.993517132629273e-06 39.13783680430505 -1.915314415371286 4.004638764761388 -44.34670175976197 -2.8680155890525074 -0.20501368776763448
134.93652109474286 -188.2007717748262 87.14794859741636 96.12827546009552 -41.73017429222144 90.09468009033553 -137.9677331748228 1.0807454591419763 85.12750168082073 -33.20127498503286 -7.138248504333211 -5.682978199736826 34.35314549155708 -19.152212746308624 -20.07201790825114 28.780800000000013 5.457130141622607e-06 6.024467949229491e-06 154.89004149149017 0.6821685588578497 85.7908418444385 -19.985948828805213 30.12622571167072 7.010454534201323 58.511897445679594 4.416672145767103 3.7180294735177934 28.780798504459174 1.438494026081709e-05 2.047976492580233e-05 -1.5935879889936175 6.951274967786191 -91.66916259720165 12.793409878367852 -4.478199574607459 -5.869185724397589 1.088254265354919 -4.744124632692541 -5.672098924906981 -21.32105877572424 -2.5175644482613477 -6.942244270623501 -1.322459790367935 -2.5198286719047753 -6.935328343597222 105.64314735590278 -64.61159303479857 -78.69430332408913 14.075001953994258 22.988906891217326 -55.92568503103445 -13.246977741882933 9.015303327864371 8.991437610518432 -65.02277357621324 22.680953232137846 -59.17457252753045 -89.40429928800414 88.9709000000002 89.09410186769412 -0.060485053367133626 -1.116284414649805e-09 -1.041196360345319e-07 -0.06392504592377216 -1.0188788279881804e-05 4.843927887620314e-07 -89.3944105239574 88.98100138304011 89.08410816422676 -1.1574200058146307 3.4107924587146184e-06 -1.69387868133166e-06 2.5759999457619047 -7.168231845021558e-06 7.96167929620358e-07 -88.85720728381148 89.35790000000037 88.54700560062255 -1.1457799775087212 -9.659795832809616e-06 4.842131035026273e-06 1.1457699211251144 1.0205187622367585e-05 -9.639613599494862e-07 -89.42210255985657 88.94869999999958 89.11190317121775 0.409288972424934 1.0254003584609657e-05 0.0007875201495657985 -0.6365989675410858 -3.698657970448952e-06 -8.811885887143922e-07 104.36399991367544 40.5023000941783 -88.82459914342816 -7.669029687159702 0.1861670654460729 -1.3504398971306562 -11.263400000000061 -2.624100716024866e-06 6.605274701943329e-05 -94.65791754726989 -20.70384831606532 63.44836985461964 -42.97969943953778 14.156668799575913 -38.731790424284256 28.88873768898295 21.065137278687992 -42.451933382112685 63.81371814923299 -16.10474118747828 -42.038010299271875 -91.18749745224963 -87.82890000000022 -89.99899739935566 3.4088799938492835 5.294988685072943e-06 0.0032683650103336793 -0.9548619887257883 -6.326427284506085e-06 -6.7547445513648444e-06 -91.18780002455776 -89.40149999999969 -89.99929993106312 2.856370160489228 8.318822682010078e-06 0.002859152787793793 -3.1684400059958597 2.950584094599699e-06 5.478796617444163e-08 88.80677697590326 -89.7170011282015 89.99537885068567 2.5448100317105915 -1.1709554189155554e-05 0.0030444492930340903 -2.544819997609997 6.538661370281725e-06 1.3194321906411278e-06 -91.18820159723866 -86.19730000000028 -89.9997019540425 6.1310400495194495 -9.904366258628236e-06 0.006860749305238606 -2.0454295881965217 -5.9239347861333974e-06 -4.6722500534923e-06 -101.94900000000005 -40.72420000000013 -90.06940000000041 10.017200000000006 2.6144837233447568e-05 5.47233952901975e-06 -2.669759836665247 -6.1825524986831754e-06 -3.985694264613753e-06 42.3835792537999 -1.223978972801879 -0.5788011088015512 -47.17150555381018 -0.849252004928573 3.161580215622207
135.67462379818636 -188.64419141541148 87.38852821733086 96.06924407177165 -43.20850333600016 88.61379588408911 -145.1457508539167 0.49032304743899857 84.67994162999128 -33.29205009784646 -4.345386912475481 -5.062478957795355 29.33195730690927 -21.629770052292837 -24.606169349859417 28.780800000000003 5.45528989693237e-06 6.018456198922924e-06 159.93187256227944 2.415808208934976 87.65095760318376 -20.67290848828754 30.363491689903693 7.358633040595019 61.27672757655496 1.9175258111056463 2.2556909633659084 28.780798427689724 1.4380593613609366e-05 2.0478086863244976e-05 -1.7673891326878728 7.101251304055539 -91.89203086532416 12.45920082117663 -4.9211204260626635 -6.200741063482514 0.7494719670919425 -5.202579222479261 -5.981984551005003 -21.64515674849305 -2.844546113267982 -7.390697264981397 -1.6484299074307205 -2.844297257931099 -7.383474953174783 106.06229698759529 -67.11889829147336 -78.12624608875736 12.944836781335864 25.30828395813292 -52.972810494842825 -13.166025610383308 7.90632620316172 8.782407257131332 -63.59476943116627 22.603189144150303 -57.57444437620215 -89.40429851220361 88.97090000000004 89.0941009794828 -0.06048505503700872 4.062339403321304e-08 -2.6426529423767263e-08 -0.06392505130205851 -1.022304013150856e-05 4.823935792401699e-07 -89.39440954697946 88.98100111935861 89.0841068811609 -1.1574200056502384 3.4110191188340815e-06 -1.6848570609943894e-06 2.57599994739048 -7.1455258400682964e-06 7.892506805021442e-07 -88.85720697434725 89.35790000000006 88.54700544235145 -1.1457799742781305 -9.680596295890497e-06 5.209851908475835e-06 1.1457699170647389 1.0217113637764026e-05 -9.679694992148502e-07 -89.42210289748803 88.94869999999995 89.1119032128722 0.4092889641566787 1.0236391878654213e-05 0.0007874959242768174 -0.6365989581873809 -3.6872646643525482e-06 -8.922696264397434e-07 104.36399990539654 40.50229972647078 -88.82459915335727 -7.669029719962168 0.1861670406101654 -1.3504399209674771 -11.263400000000004 -2.595203194306854e-06 6.605592114148488e-05 -93.95509698545723 -18.16386991140662 63.854261055263834 -45.82218936586314 14.005611363081064 -41.45668500271446 32.939748723958196 22.5044470802627 -45.896624811247996 61.53687872280875 -16.78170607185834 -44.457341019986174 -91.18749640298363 -87.82890000000003 -89.99899636487308 3.4088799898004094 5.267698572303982e-06 0.0032678892794537704 -0.9548620966730834 -6.3029663221766225e-06 -6.842337890789107e-06 -91.18779982432751 -89.40149999999994 -89.99929996625602 2.856370155134457 8.345232663209122e-06 0.0028592576461760884 -3.1684400075439645 2.9238955277203795e-06 5.646275475227204e-08 88.80677402434011 -89.71700105508667 89.99537538617015 2.544810037306512 -1.1668852804889434e-05 0.0030451360595898395 -2.5448199943548864 6.5006803120442744e-06 1.3188877598040328e-06 -91.18820185771561 -86.19730000000001 -89.99970225063842 6.131040050275886 -9.871532727274546e-06 0.006861363270808621 -2.045429554991105 -5.9295946931916176e-06 -4.6268086060077906e-06 -101.949 -40.72420000000001 -90.06940000000007 10.0172 2.6123443634870404e-05 5.483501474088766e-06 -2.6697598387072916 -6.152504133392738e-06 -3.9758283071933865e-06 45.52140672250939 -0.704112491984741 -5.153260592094414 -50.1384440927491 1.2039873813698303 6.022895236539229
